<svg id="visual" viewBox="0 0 900 600" width="900" height="600" xmlns="http://www.w3.org/2000/svg" xmlns:xlink="http://www.w3.org/1999/xlink" version="1.1"><path d="M0 434L21.5 441.3C43 448.7 86 463.3 128.8 468.8C171.7 474.3 214.3 470.7 257.2 463.5C300 456.3 343 445.7 385.8 439.7C428.7 433.7 471.3 432.3 514.2 432C557 431.7 600 432.3 642.8 435.8C685.7 439.3 728.3 445.7 771.2 446.5C814 447.3 857 442.7 878.5 440.3L900 438L900 601L878.5 601C857 601 814 601 771.2 601C728.3 601 685.7 601 642.8 601C600 601 557 601 514.2 601C471.3 601 428.7 601 385.8 601C343 601 300 601 257.2 601C214.3 601 171.7 601 128.8 601C86 601 43 601 21.5 601L0 601Z" fill="#101729" stroke-linecap="round" stroke-linejoin="miter"></path></svg>